{
    "asset" : {
        "generator" : "Khronos glTF Blender I/O v1.3.48",
        "version" : "2.0"
    },
    "scene" : 0,
    "scenes" : [
        {
            "name" : "Scene",
            "nodes" : [
                0,
                1,
                2,
                3,
                4,
                5,
                6,
                7,
                8,
                9
            ]
        }
    ],
    "nodes" : [
        {
            "mesh" : 0,
            "name" : "Cube",
            "scale" : [
                4.649174213409424,
                0.9780299067497253,
                0.23789352178573608
            ],
            "translation" : [
                -0.06033670902252197,
                0,
                0
            ]
        },
        {
            "name" : "Light",
            "rotation" : [
                0.5095791816711426,
                0.6060836911201477,
                -0.25299564003944397,
                0.5558640360832214
            ],
            "scale" : [
                1.151196002960205,
                1.494428277015686,
                1.8127102851867676
            ],
            "translation" : [
                6.7479472160339355,
                3.599576950073242,
                1.7691364288330078
            ]
        },
        {
            "name" : "Camera",
            "rotation" : [
                0.483536034822464,
                0.33687159419059753,
                -0.20870360732078552,
                0.7804827094078064
            ],
            "translation" : [
                8.435284614562988,
                4.857252597808838,
                3.8568787574768066
            ]
        },
        {
            "mesh" : 1,
            "name" : "Cube.002",
            "scale" : [
                4.649174213409424,
                0.9780299067497253,
                -0.036079660058021545
            ],
            "translation" : [
                -0.06033670902252197,
                0,
                -0.2933061420917511
            ]
        },
        {
            "name" : "Light.001",
            "rotation" : [
                -0.43152257800102234,
                0.8646576404571533,
                0.06252714991569519,
                0.24949109554290771
            ],
            "scale" : [
                1.151196002960205,
                1.494428277015686,
                1.8127102851867676
            ],
            "translation" : [
                -6.32420539855957,
                3.599576950073242,
                -0.8594279289245605
            ]
        },
        {
            "mesh" : 2,
            "name" : "Cube.001",
            "scale" : [
                4.649174213409424,
                0.9780299067497253,
                -0.036079660058021545
            ],
            "translation" : [
                -0.06033670902252197,
                0,
                0.2926602363586426
            ]
        },
        {
            "mesh" : 3,
            "name" : "Cube.003",
            "scale" : [
                1.222881555557251,
                1.810097098350525,
                0.07699745893478394
            ],
            "translation" : [
                1.9168293476104736,
                0.1117371991276741,
                2.0217647552490234
            ]
        },
        {
            "mesh" : 4,
            "name" : "Cube.004",
            "scale" : [
                1.222881555557251,
                1.810097098350525,
                0.07699745893478394
            ],
            "translation" : [
                -1.9314875602722168,
                0.1117371991276741,
                2.0217647552490234
            ]
        },
        {
            "mesh" : 5,
            "name" : "Cube.005",
            "scale" : [
                1.222881555557251,
                1.810097098350525,
                -0.07699745893478394
            ],
            "translation" : [
                1.9168293476104736,
                0.1117371991276741,
                -1.8233489990234375
            ]
        },
        {
            "mesh" : 6,
            "name" : "Cube.006",
            "scale" : [
                1.222881555557251,
                1.810097098350525,
                -0.07699745893478394
            ],
            "translation" : [
                -1.9314875602722168,
                0.1117371991276741,
                -1.8233489990234375
            ]
        }
    ],
    "materials" : [
        {
            "doubleSided" : true,
            "emissiveFactor" : [
                0,
                0,
                0
            ],
            "name" : "Material",
            "pbrMetallicRoughness" : {
                "baseColorFactor" : [
                    0.8000000715255737,
                    0.19102469086647034,
                    0,
                    1
                ],
                "metallicFactor" : 0.9340659379959106,
                "roughnessFactor" : 0.4000000059604645
            }
        },
        {
            "doubleSided" : true,
            "emissiveFactor" : [
                0,
                0,
                0
            ],
            "name" : "Material.001",
            "pbrMetallicRoughness" : {
                "baseColorFactor" : [
                    0.7484013438224792,
                    0.7484013438224792,
                    0.7484013438224792,
                    1
                ],
                "metallicFactor" : 0.8351648449897766,
                "roughnessFactor" : 0.44505494832992554
            }
        },
        {
            "doubleSided" : true,
            "emissiveFactor" : [
                0,
                0,
                0
            ],
            "name" : "Material.003",
            "pbrMetallicRoughness" : {
                "baseColorFactor" : [
                    0.01599504053592682,
                    0.01599504053592682,
                    0.01599504053592682,
                    1
                ],
                "metallicFactor" : 0,
                "roughnessFactor" : 0.8186813592910767
            }
        }
    ],
    "meshes" : [
        {
            "name" : "Cube",
            "primitives" : [
                {
                    "attributes" : {
                        "POSITION" : 0,
                        "NORMAL" : 1,
                        "TEXCOORD_0" : 2
                    },
                    "indices" : 3,
                    "material" : 0
                }
            ]
        },
        {
            "name" : "Cube.002",
            "primitives" : [
                {
                    "attributes" : {
                        "POSITION" : 4,
                        "NORMAL" : 5,
                        "TEXCOORD_0" : 6
                    },
                    "indices" : 3,
                    "material" : 0
                }
            ]
        },
        {
            "name" : "Cube.001",
            "primitives" : [
                {
                    "attributes" : {
                        "POSITION" : 7,
                        "NORMAL" : 8,
                        "TEXCOORD_0" : 9
                    },
                    "indices" : 3,
                    "material" : 0
                }
            ]
        },
        {
            "name" : "Cube.003",
            "primitives" : [
                {
                    "attributes" : {
                        "POSITION" : 10,
                        "NORMAL" : 11,
                        "TEXCOORD_0" : 12
                    },
                    "indices" : 3,
                    "material" : 1
                },
                {
                    "attributes" : {
                        "POSITION" : 13,
                        "NORMAL" : 14,
                        "TEXCOORD_0" : 15
                    },
                    "indices" : 16,
                    "material" : 2
                }
            ]
        },
        {
            "name" : "Cube.016",
            "primitives" : [
                {
                    "attributes" : {
                        "POSITION" : 17,
                        "NORMAL" : 18,
                        "TEXCOORD_0" : 19
                    },
                    "indices" : 3,
                    "material" : 1
                },
                {
                    "attributes" : {
                        "POSITION" : 20,
                        "NORMAL" : 21,
                        "TEXCOORD_0" : 22
                    },
                    "indices" : 16,
                    "material" : 2
                }
            ]
        },
        {
            "name" : "Cube.017",
            "primitives" : [
                {
                    "attributes" : {
                        "POSITION" : 23,
                        "NORMAL" : 24,
                        "TEXCOORD_0" : 25
                    },
                    "indices" : 3,
                    "material" : 1
                },
                {
                    "attributes" : {
                        "POSITION" : 26,
                        "NORMAL" : 27,
                        "TEXCOORD_0" : 28
                    },
                    "indices" : 16,
                    "material" : 2
                }
            ]
        },
        {
            "name" : "Cube.018",
            "primitives" : [
                {
                    "attributes" : {
                        "POSITION" : 29,
                        "NORMAL" : 30,
                        "TEXCOORD_0" : 31
                    },
                    "indices" : 3,
                    "material" : 1
                },
                {
                    "attributes" : {
                        "POSITION" : 32,
                        "NORMAL" : 33,
                        "TEXCOORD_0" : 34
                    },
                    "indices" : 16,
                    "material" : 2
                }
            ]
        }
    ],
    "accessors" : [
        {
            "bufferView" : 0,
            "componentType" : 5126,
            "count" : 24,
            "max" : [
                1,
                1,
                1
            ],
            "min" : [
                -1,
                -1,
                -1
            ],
            "type" : "VEC3"
        },
        {
            "bufferView" : 1,
            "componentType" : 5126,
            "count" : 24,
            "type" : "VEC3"
        },
        {
            "bufferView" : 2,
            "componentType" : 5126,
            "count" : 24,
            "type" : "VEC2"
        },
        {
            "bufferView" : 3,
            "componentType" : 5123,
            "count" : 36,
            "type" : "SCALAR"
        },
        {
            "bufferView" : 4,
            "componentType" : 5126,
            "count" : 24,
            "max" : [
                1,
                1,
                1
            ],
            "min" : [
                -1,
                -1,
                -1
            ],
            "type" : "VEC3"
        },
        {
            "bufferView" : 5,
            "componentType" : 5126,
            "count" : 24,
            "type" : "VEC3"
        },
        {
            "bufferView" : 6,
            "componentType" : 5126,
            "count" : 24,
            "type" : "VEC2"
        },
        {
            "bufferView" : 7,
            "componentType" : 5126,
            "count" : 24,
            "max" : [
                1,
                1,
                1
            ],
            "min" : [
                -1,
                -1,
                -1
            ],
            "type" : "VEC3"
        },
        {
            "bufferView" : 8,
            "componentType" : 5126,
            "count" : 24,
            "type" : "VEC3"
        },
        {
            "bufferView" : 9,
            "componentType" : 5126,
            "count" : 24,
            "type" : "VEC2"
        },
        {
            "bufferView" : 10,
            "componentType" : 5126,
            "count" : 24,
            "max" : [
                1,
                1,
                1
            ],
            "min" : [
                -1,
                -1,
                -1
            ],
            "type" : "VEC3"
        },
        {
            "bufferView" : 11,
            "componentType" : 5126,
            "count" : 24,
            "type" : "VEC3"
        },
        {
            "bufferView" : 12,
            "componentType" : 5126,
            "count" : 24,
            "type" : "VEC2"
        },
        {
            "bufferView" : 13,
            "componentType" : 5126,
            "count" : 192,
            "max" : [
                0.7392472624778748,
                0.8697065711021423,
                -0.2970714569091797
            ],
            "min" : [
                -0.7631080746650696,
                -0.8458222150802612,
                -2.2970714569091797
            ],
            "type" : "VEC3"
        },
        {
            "bufferView" : 14,
            "componentType" : 5126,
            "count" : 192,
            "type" : "VEC3"
        },
        {
            "bufferView" : 15,
            "componentType" : 5126,
            "count" : 192,
            "type" : "VEC2"
        },
        {
            "bufferView" : 16,
            "componentType" : 5123,
            "count" : 288,
            "type" : "SCALAR"
        },
        {
            "bufferView" : 17,
            "componentType" : 5126,
            "count" : 24,
            "max" : [
                1,
                1,
                1
            ],
            "min" : [
                -1,
                -1,
                -1
            ],
            "type" : "VEC3"
        },
        {
            "bufferView" : 18,
            "componentType" : 5126,
            "count" : 24,
            "type" : "VEC3"
        },
        {
            "bufferView" : 19,
            "componentType" : 5126,
            "count" : 24,
            "type" : "VEC2"
        },
        {
            "bufferView" : 20,
            "componentType" : 5126,
            "count" : 192,
            "max" : [
                0.7392472624778748,
                0.8697065711021423,
                -0.2970714569091797
            ],
            "min" : [
                -0.7631080746650696,
                -0.8458222150802612,
                -2.2970714569091797
            ],
            "type" : "VEC3"
        },
        {
            "bufferView" : 21,
            "componentType" : 5126,
            "count" : 192,
            "type" : "VEC3"
        },
        {
            "bufferView" : 22,
            "componentType" : 5126,
            "count" : 192,
            "type" : "VEC2"
        },
        {
            "bufferView" : 23,
            "componentType" : 5126,
            "count" : 24,
            "max" : [
                1,
                1,
                1
            ],
            "min" : [
                -1,
                -1,
                -1
            ],
            "type" : "VEC3"
        },
        {
            "bufferView" : 24,
            "componentType" : 5126,
            "count" : 24,
            "type" : "VEC3"
        },
        {
            "bufferView" : 25,
            "componentType" : 5126,
            "count" : 24,
            "type" : "VEC2"
        },
        {
            "bufferView" : 26,
            "componentType" : 5126,
            "count" : 192,
            "max" : [
                0.7392472624778748,
                0.8697065711021423,
                -0.2970714569091797
            ],
            "min" : [
                -0.7631080746650696,
                -0.8458222150802612,
                -2.2970714569091797
            ],
            "type" : "VEC3"
        },
        {
            "bufferView" : 27,
            "componentType" : 5126,
            "count" : 192,
            "type" : "VEC3"
        },
        {
            "bufferView" : 28,
            "componentType" : 5126,
            "count" : 192,
            "type" : "VEC2"
        },
        {
            "bufferView" : 29,
            "componentType" : 5126,
            "count" : 24,
            "max" : [
                1,
                1,
                1
            ],
            "min" : [
                -1,
                -1,
                -1
            ],
            "type" : "VEC3"
        },
        {
            "bufferView" : 30,
            "componentType" : 5126,
            "count" : 24,
            "type" : "VEC3"
        },
        {
            "bufferView" : 31,
            "componentType" : 5126,
            "count" : 24,
            "type" : "VEC2"
        },
        {
            "bufferView" : 32,
            "componentType" : 5126,
            "count" : 192,
            "max" : [
                0.7392472624778748,
                0.8697065711021423,
                -0.2970714569091797
            ],
            "min" : [
                -0.7631080746650696,
                -0.8458222150802612,
                -2.2970714569091797
            ],
            "type" : "VEC3"
        },
        {
            "bufferView" : 33,
            "componentType" : 5126,
            "count" : 192,
            "type" : "VEC3"
        },
        {
            "bufferView" : 34,
            "componentType" : 5126,
            "count" : 192,
            "type" : "VEC2"
        }
    ],
    "bufferViews" : [
        {
            "buffer" : 0,
            "byteLength" : 288,
            "byteOffset" : 0
        },
        {
            "buffer" : 0,
            "byteLength" : 288,
            "byteOffset" : 288
        },
        {
            "buffer" : 0,
            "byteLength" : 192,
            "byteOffset" : 576
        },
        {
            "buffer" : 0,
            "byteLength" : 72,
            "byteOffset" : 768
        },
        {
            "buffer" : 0,
            "byteLength" : 288,
            "byteOffset" : 840
        },
        {
            "buffer" : 0,
            "byteLength" : 288,
            "byteOffset" : 1128
        },
        {
            "buffer" : 0,
            "byteLength" : 192,
            "byteOffset" : 1416
        },
        {
            "buffer" : 0,
            "byteLength" : 288,
            "byteOffset" : 1608
        },
        {
            "buffer" : 0,
            "byteLength" : 288,
            "byteOffset" : 1896
        },
        {
            "buffer" : 0,
            "byteLength" : 192,
            "byteOffset" : 2184
        },
        {
            "buffer" : 0,
            "byteLength" : 288,
            "byteOffset" : 2376
        },
        {
            "buffer" : 0,
            "byteLength" : 288,
            "byteOffset" : 2664
        },
        {
            "buffer" : 0,
            "byteLength" : 192,
            "byteOffset" : 2952
        },
        {
            "buffer" : 0,
            "byteLength" : 2304,
            "byteOffset" : 3144
        },
        {
            "buffer" : 0,
            "byteLength" : 2304,
            "byteOffset" : 5448
        },
        {
            "buffer" : 0,
            "byteLength" : 1536,
            "byteOffset" : 7752
        },
        {
            "buffer" : 0,
            "byteLength" : 576,
            "byteOffset" : 9288
        },
        {
            "buffer" : 0,
            "byteLength" : 288,
            "byteOffset" : 9864
        },
        {
            "buffer" : 0,
            "byteLength" : 288,
            "byteOffset" : 10152
        },
        {
            "buffer" : 0,
            "byteLength" : 192,
            "byteOffset" : 10440
        },
        {
            "buffer" : 0,
            "byteLength" : 2304,
            "byteOffset" : 10632
        },
        {
            "buffer" : 0,
            "byteLength" : 2304,
            "byteOffset" : 12936
        },
        {
            "buffer" : 0,
            "byteLength" : 1536,
            "byteOffset" : 15240
        },
        {
            "buffer" : 0,
            "byteLength" : 288,
            "byteOffset" : 16776
        },
        {
            "buffer" : 0,
            "byteLength" : 288,
            "byteOffset" : 17064
        },
        {
            "buffer" : 0,
            "byteLength" : 192,
            "byteOffset" : 17352
        },
        {
            "buffer" : 0,
            "byteLength" : 2304,
            "byteOffset" : 17544
        },
        {
            "buffer" : 0,
            "byteLength" : 2304,
            "byteOffset" : 19848
        },
        {
            "buffer" : 0,
            "byteLength" : 1536,
            "byteOffset" : 22152
        },
        {
            "buffer" : 0,
            "byteLength" : 288,
            "byteOffset" : 23688
        },
        {
            "buffer" : 0,
            "byteLength" : 288,
            "byteOffset" : 23976
        },
        {
            "buffer" : 0,
            "byteLength" : 192,
            "byteOffset" : 24264
        },
        {
            "buffer" : 0,
            "byteLength" : 2304,
            "byteOffset" : 24456
        },
        {
            "buffer" : 0,
            "byteLength" : 2304,
            "byteOffset" : 26760
        },
        {
            "buffer" : 0,
            "byteLength" : 1536,
            "byteOffset" : 29064
        }
    ],
    "buffers" : [
        {
            "byteLength" : 30600,
            "uri" : "data:application/octet-stream;base64,"
        }
    ]
}
